<?xml version="1.0" encoding="UTF-8" standalone="no"?>
<!-- Created with Inkscape (http://www.inkscape.org/) -->

<svg
   width="164.90025mm"
   height="33.126453mm"
   viewBox="0 0 164.90025 33.126453"
   version="1.1"
   id="svg2252"
   inkscape:version="1.1 (c68e22c387, 2021-05-23)"
   sodipodi:docname="edp__logoGeoportail.svg"
   xmlns:inkscape="http://www.inkscape.org/namespaces/inkscape"
   xmlns:sodipodi="http://sodipodi.sourceforge.net/DTD/sodipodi-0.dtd"
   xmlns="http://www.w3.org/2000/svg"
   xmlns:svg="http://www.w3.org/2000/svg">
  <sodipodi:namedview
     id="namedview2254"
     pagecolor="#ffffff"
     bordercolor="#666666"
     borderopacity="1.0"
     inkscape:pageshadow="2"
     inkscape:pageopacity="0.0"
     inkscape:pagecheckerboard="0"
     inkscape:document-units="mm"
     showgrid="false"
     lock-margins="true"
     fit-margin-top="2"
     fit-margin-left="2"
     fit-margin-right="2"
     fit-margin-bottom="2"
     inkscape:zoom="0.69397447"
     inkscape:cx="353.03893"
     inkscape:cy="222.63067"
     inkscape:window-width="2400"
     inkscape:window-height="1271"
     inkscape:window-x="-9"
     inkscape:window-y="-9"
     inkscape:window-maximized="1"
     inkscape:current-layer="layer1" />
  <defs
     id="defs2249" />
  <g
     inkscape:label="Calque 1"
     inkscape:groupmode="layer"
     id="layer1"
     transform="translate(-11.339347,-89.426497)">
    <path
       fill-rule="evenodd"
       clip-rule="evenodd"
       d="m 17.508287,96.323058 c -1.021509,0.0017 -2.648983,-0.438765 -3.311252,-1.029828 -0.437127,-0.393857 -0.699877,-0.945244 -0.730464,-1.532852 -0.03068,-0.587602 0.173602,-1.163287 0.5674,-1.600415 0.393853,-0.437124 0.945248,-0.69988 1.53286,-0.730463 0.587595,-0.03059 1.163296,0.173513 1.600424,0.567386 0.706949,0.634106 1.398976,2.498344 1.420541,3.491718 0.01083,0.289746 -0.04295,0.483463 -0.153932,0.594381 -0.160609,0.158931 -0.473509,0.240073 -0.925505,0.240073 z m 15.198698,2.605948 c 0.774839,0 2.389085,-0.642395 2.915593,-1.271523 0.153933,-0.184813 0.270167,-0.39814 0.341773,-0.627832 0.07164,-0.22969 0.09726,-0.471242 0.07543,-0.710846 -0.02183,-0.239607 -0.09059,-0.472577 -0.202295,-0.685617 -0.111705,-0.213036 -0.264445,-0.401958 -0.449272,-0.555989 -0.184773,-0.154055 -0.39813,-0.270187 -0.627819,-0.341783 -0.229689,-0.07159 -0.471198,-0.09726 -0.710812,-0.07549 -0.239614,0.02175 -0.472587,0.09049 -0.685602,0.202279 -0.213051,0.111782 -0.402009,0.26445 -0.556032,0.449264 -0.609285,0.728474 -1.031452,3.013246 -0.516565,3.503305 0.11784,0.09153 0.267405,0.132601 0.415544,0.114249 z m 16.726991,1.642374 c -0.261017,-0.28999 -0.570235,-0.53255 -0.914046,-0.716864 -0.537553,-0.272444 -1.134296,-0.407298 -1.736761,-0.392373 -0.712508,-0.01863 -1.415524,0.166763 -2.026199,0.53429 -0.610693,0.367537 -1.103654,0.901897 -1.42083,1.540187 -0.319594,0.65547 -0.485688,1.37512 -0.485688,2.10431 0,0.72924 0.166022,1.44888 0.485688,2.10432 0.314866,0.64074 0.807051,1.17762 1.418124,1.54685 0.611035,0.3692 1.315261,0.5552 2.028905,0.53591 0.602465,0.0148 1.199208,-0.11989 1.736761,-0.39237 0.341971,-0.18366 0.650864,-0.42315 0.914046,-0.70861 v 0.97518 h 1.463508 v -8.112603 h -1.470366 z m -0.236871,4.48844 c -0.188057,0.43671 -0.504836,0.80568 -0.908037,1.05773 -0.403182,0.25204 -0.873676,0.37514 -1.34861,0.35286 -0.480293,0.0177 -0.955154,-0.10663 -1.365284,-0.35719 -0.410149,-0.25056 -0.737466,-0.61637 -0.941025,-1.05174 -0.206066,-0.44375 -0.312844,-0.92714 -0.312844,-1.4164 0,-0.48927 0.106831,-0.97266 0.312844,-1.4164 0.20558,-0.43332 0.533511,-0.79703 0.943352,-1.04623 0.409824,-0.24919 0.883621,-0.37298 1.362957,-0.35607 0.49242,-0.0164 0.978379,0.1162 1.39405,0.38076 0.37541,0.25392 0.673854,0.60617 0.862597,1.01823 0.197566,0.44694 0.29958,0.93023 0.29958,1.41888 0,0.48865 -0.101959,0.97197 -0.29958,1.41888 z m 6.639177,2.76819 c 0.576388,0.0225 1.147037,-0.12115 1.643752,-0.41389 0.294509,-0.18607 0.564495,-0.40859 0.803135,-0.66225 v 0.95859 h 1.471791 v -8.112563 h -1.471791 v 4.653963 c 0.0054,0.29238 -0.04728,0.58295 -0.156459,0.85431 -0.108997,0.27136 -0.271429,0.51796 -0.477965,0.72505 -0.206571,0.20709 -0.452772,0.37046 -0.72348,0.48026 -0.271086,0.10983 -0.561607,0.16387 -0.853952,0.15893 -0.272873,0.01 -0.544681,-0.039 -0.796999,-0.14293 -0.252337,-0.10396 -0.479789,-0.26069 -0.66651,-0.4597 -0.396524,-0.43956 -0.603799,-1.0179 -0.576406,-1.60929 v -4.668883 h -1.470005 v 4.700353 c -0.02166,0.67783 0.139134,1.34906 0.465027,1.94369 0.288373,0.50524 0.712291,0.91985 1.223785,1.19702 0.487349,0.2621 1.032392,0.39868 1.586077,0.39734 z m -37.670671,5.93216 c 0.292687,0.15648 0.555977,0.36263 0.778105,0.60926 v -3.50002 h 1.246722 v 9.5679 h -1.251667 v -0.82779 c -0.223372,0.2435 -0.486518,0.44727 -0.778141,0.60264 -0.457195,0.23117 -0.964719,0.34497 -1.476827,0.33113 -0.606128,0.017 -1.204423,-0.14022 -1.723858,-0.45304 -0.519434,-0.31285 -0.938209,-0.76816 -1.206606,-1.31186 -0.272421,-0.55791 -0.413992,-1.17056 -0.413992,-1.7914 0,-0.62084 0.141661,-1.23353 0.413992,-1.79139 0.27013,-0.54352 0.689951,-0.99854 1.209999,-1.31154 0.520049,-0.31296 1.118687,-0.47085 1.725428,-0.45502 0.512108,-0.0137 1.01965,0.0999 1.476845,0.33113 z m -0.199787,5.32865 c 0.344118,-0.21332 0.614861,-0.52672 0.775921,-0.89818 h -0.0054 c 0.168729,-0.38033 0.255783,-0.79177 0.255783,-1.20779 0,-0.41602 -0.08716,-0.82746 -0.255711,-1.2078 -0.161872,-0.36962 -0.432219,-0.68143 -0.775109,-0.89425 -0.342873,-0.21282 -0.742248,-0.31667 -1.145377,-0.29778 -0.406576,-0.0143 -0.808513,0.0902 -1.156854,0.30034 -0.348359,0.21015 -0.628071,0.51709 -0.805048,0.88344 -0.176129,0.3777 -0.267369,0.78936 -0.267369,1.2061 0,0.41674 0.09131,0.82843 0.267369,1.20613 0.169451,0.35683 0.434926,0.65949 0.766538,0.87418 0.357562,0.22475 0.773124,0.33985 1.195364,0.33113 0.404355,0.0209 0.805463,-0.0821 1.149581,-0.29552 z m 8.28089,-5.18626 c -0.557801,-0.31376 -1.187009,-0.47857 -1.826972,-0.47857 -0.64,0 -1.26919,0.16482 -1.826973,0.47857 -0.50875,0.31047 -0.920938,0.75648 -1.190419,1.28806 -0.27973,0.55643 -0.421679,1.17196 -0.413901,1.79471 -0.0054,0.6243 0.145991,1.23995 0.438732,1.7914 0.283052,0.53454 0.706662,0.98163 1.225159,1.29304 0.555273,0.32313 1.188831,0.48696 1.831122,0.47352 0.814594,0 1.490072,-0.1987 2.013261,-0.59107 0.514941,-0.38675 0.909877,-0.91141 1.139096,-1.51325 l 0.06785,-0.16557 h -1.35267 l -0.03645,0.0662 c -0.166745,0.30867 -0.408741,0.57008 -0.70363,0.75994 -0.334824,0.2045 -0.722217,0.3064 -1.114265,0.29306 -0.387177,0.008 -0.76975,-0.0853 -1.109267,-0.27154 -0.311058,-0.17364 -0.572616,-0.42381 -0.759933,-0.72682 -0.163497,-0.2702 -0.275778,-0.56821 -0.331143,-0.87915 h 5.554634 v -0.52646 c 0.0072,-0.62275 -0.134082,-1.23829 -0.413902,-1.79471 -0.270274,-0.53191 -0.682209,-0.97882 -1.190402,-1.29139 z m -3.938728,2.42384 c 0.09925,-0.45791 0.329411,-0.87717 0.662251,-1.20697 0.193398,-0.1816 0.421246,-0.32265 0.670046,-0.41479 0.248836,-0.0921 0.51357,-0.13347 0.778611,-0.12163 0.266069,-0.0117 0.531778,0.0297 0.781606,0.12177 0.249882,0.0921 0.478903,0.23308 0.673691,0.41465 0.336756,0.32684 0.567492,0.74737 0.662269,1.20697 z m 21.316239,-2.56623 c 0.293284,0.15557 0.556754,0.36188 0.778142,0.60926 v -0.83776 h 1.251667 v 6.90564 h -1.251667 v -0.82782 c -0.223012,0.24389 -0.48623,0.44774 -0.778142,0.60267 -0.457103,0.23139 -0.964682,0.34518 -1.476808,0.33113 -0.606885,0.0175 -1.206065,-0.13939 -1.726402,-0.45221 -0.520337,-0.31286 -0.939959,-0.76846 -1.209043,-1.31269 -0.272421,-0.55791 -0.413974,-1.17056 -0.413974,-1.7914 0,-0.62084 0.141661,-1.23353 0.413974,-1.79139 0.270636,-0.54316 0.690546,-0.99782 1.210486,-1.31074 0.51994,-0.31289 1.118326,-0.47103 1.724959,-0.45582 0.512126,-0.0141 1.019705,0.0997 1.476808,0.33113 z m -0.193307,5.32527 c 0.341826,-0.21319 0.610728,-0.52528 0.771103,-0.8948 h 0.0072 c 0.166925,-0.38076 0.253274,-0.79203 0.253274,-1.20779 0,-0.41577 -0.08626,-0.82703 -0.253274,-1.2078 -0.162594,-0.36948 -0.433319,-0.68107 -0.776373,-0.89385 -0.34309,-0.21275 -0.742536,-0.31671 -1.145791,-0.29818 -0.407442,-0.0143 -0.810156,0.0908 -1.158695,0.30229 -0.34854,0.21148 -0.627711,0.52015 -0.803243,0.88808 -0.175588,0.37789 -0.266503,0.78951 -0.266503,1.20614 0,0.41663 0.09095,0.82825 0.266503,1.20613 0.17288,0.37057 0.451275,0.68194 0.800247,0.89512 0.348937,0.21322 0.753022,0.31881 1.161691,0.30356 0.402424,0.0185 0.800969,-0.0857 1.14276,-0.2989 z m 6.163468,-5.44282 c -0.287147,0.12789 -0.549481,0.30557 -0.774767,0.52481 -0.168729,0.16438 -0.315552,0.34965 -0.437109,0.55134 v -1.1871 h -1.251649 v 6.90895 H 48.38251 V 117.386 c -0.0016,-0.45604 0.09221,-0.90738 0.276482,-1.32452 0.173061,-0.39233 0.443154,-0.73417 0.78471,-0.99338 0.350001,-0.25655 0.775002,-0.39043 1.208664,-0.3808 h 0.245118 v -1.26323 h -0.19394 c -0.381022,-0.008 -0.759499,0.0667 -1.109158,0.21855 z m 2.129296,-0.11096 h 1.251541 v 6.90895 h -1.251541 z m 1.291206,-2.42219 h -1.331232 v 1.55795 h 1.331232 z m 5.604224,5.6391 c 0.335601,0.12608 0.635867,0.33177 0.874507,0.59931 0.242231,0.30467 0.364781,0.68746 0.344263,1.07619 0.01624,0.31112 -0.05017,0.62094 -0.188887,0.89977 -0.138774,0.27886 -0.34679,0.51745 -0.60416,0.69293 -0.5133,0.35431 -1.202167,0.53476 -2.049642,0.53476 -0.552603,0.0153 -1.101236,-0.0932 -1.605891,-0.31786 -0.408416,-0.18702 -0.759139,-0.48037 -1.015085,-0.84934 -0.230338,-0.34472 -0.364077,-0.74492 -0.387501,-1.15895 l -0.009,-0.1341 h 1.286153 l 0.01443,0.11091 c 0.02852,0.21123 0.10214,0.41392 0.215198,0.59438 0.132277,0.2015 0.319757,0.36072 0.539989,0.45859 0.310355,0.13161 0.646317,0.19325 0.983361,0.18048 0.158985,-0.003 0.317934,-0.0159 0.475095,-0.0397 0.183853,-0.0242 0.364077,-0.0709 0.53638,-0.13911 0.157903,-0.0602 0.298823,-0.15796 0.410581,-0.28477 0.108818,-0.12858 0.164399,-0.29375 0.155737,-0.46191 0.0054,-0.10471 -0.01624,-0.20893 -0.06371,-0.30279 -0.04638,-0.0939 -0.116577,-0.17429 -0.202944,-0.23363 -0.23864,-0.15702 -0.503952,-0.26923 -0.78296,-0.33113 -0.04421,-0.0103 -0.08897,-0.0209 -0.134081,-0.0316 l -0.110261,-0.0261 -0.0011,-1.8e-4 c -0.264951,-0.0628 -0.53925,-0.12785 -0.820784,-0.18715 -0.372379,-0.0739 -0.738243,-0.17689 -1.094398,-0.30795 -0.333074,-0.12089 -0.632979,-0.31956 -0.874145,-0.57946 -0.24584,-0.29277 -0.371999,-0.66781 -0.352545,-1.04965 -0.01443,-0.28953 0.04493,-0.57784 0.168368,-0.84001 0.123615,-0.2622 0.308929,-0.49041 0.54035,-0.66499 0.459955,-0.34933 1.142344,-0.52481 2.028004,-0.52481 0.511892,-0.0187 1.021238,0.0786 1.490199,0.28477 0.355415,0.16543 0.661456,0.42114 0.887464,0.74171 0.19827,0.29108 0.321543,0.6266 0.359041,0.97683 l 0.01624,0.13907 h -1.265346 l -0.01443,-0.11095 c -0.035,-0.2577 -0.170173,-0.49132 -0.375627,-0.65065 -0.22025,-0.18377 -0.597645,-0.27648 -1.122494,-0.27648 -1.458835,0 -1.458835,0.62084 -1.458835,0.82782 -0.0054,0.10017 0.01805,0.19981 0.06352,0.28877 0.04619,0.089 0.115495,0.16416 0.200057,0.21783 0.24225,0.15047 0.507904,0.25904 0.786191,0.32122 0.336322,0.0844 0.693902,0.16391 1.064459,0.23838 0.373821,0.0733 0.740064,0.18024 1.094396,0.31955 z M 13.670544,106.60451 c -0.102862,0.18063 -0.168729,0.37997 -0.193831,0.58634 -0.02509,0.20637 -0.009,0.41569 0.04819,0.61564 0.09276,0.33423 0.292507,0.62874 0.568953,0.83814 0.276428,0.20943 0.61405,0.32215 0.960839,0.32081 0.14166,5.1e-4 0.282672,-0.019 0.418882,-0.0579 0.788085,-0.21689 2.213589,-1.63744 2.087737,-2.24173 -0.107554,-0.46028 -1.59768,-0.85763 -2.451976,-0.85763 -0.161873,-0.004 -0.323293,0.0148 -0.480131,0.0547 -0.200941,0.054 -0.389143,0.14734 -0.553704,0.27471 -0.164579,0.12732 -0.302179,0.28607 -0.404896,0.46699 z m 18.708618,1.00167 c 4.240094,2.60595 5.700355,4.96689 5.700355,4.96689 l -0.0016,0.0115 c 0.349441,0.52023 0.527194,1.13681 0.5083,1.76324 0,0.90233 -0.288104,1.63409 -0.850994,2.1639 -0.562925,0.52979 -1.341067,0.79801 -2.30961,0.79801 h -2.842707 v 3.14572 h -1.251668 v -9.06626 h 2.182117 c 1.821198,0 1.238421,-2 -1.324519,-3.22683 -2.562904,-1.22682 -5.665563,-0.76156 -6.564576,-0.0447 -0.788915,0.63068 -0.967263,1.02421 -1.174502,1.48139 -0.09402,0.20774 -0.194229,0.4286 -0.360251,0.69081 -0.0054,0.0135 -0.01264,0.0259 -0.02328,0.0364 v 0.01 c -0.130472,0.19263 -0.299328,0.35614 -0.496101,0.48025 -0.196756,0.12407 -0.417114,0.20605 -0.647128,0.24076 -0.23005,0.0347 -0.464755,0.0213 -0.689374,-0.0393 -0.2246,-0.0606 -0.434239,-0.167 -0.615619,-0.3126 -0.181434,-0.14561 -0.330711,-0.32727 -0.438444,-0.53346 -0.107735,-0.20619 -0.171617,-0.43246 -0.187462,-0.66453 -0.01624,-0.23207 0.01624,-0.46493 0.09492,-0.68392 0.07868,-0.21895 0.201682,-0.41923 0.361514,-0.58825 0.571209,-0.6225 1.357652,-0.55462 2.168889,-0.47845 0.445609,0.013 0.881779,-0.13017 1.233062,-0.40467 0.351319,-0.27449 0.595625,-0.66312 0.690763,-1.09868 0.160609,-1.30295 -0.377485,-1.69868 -3.594356,-2.64899 -0.09547,-0.0282 -0.194121,-0.0571 -0.295394,-0.0867 -1.549823,-0.45347 -3.711566,-1.08595 -4.375152,-2.36028 -0.88907,-1.644071 1.427182,-2.708613 1.938767,-0.95698 0.592701,2.92717 5.8394,3.68545 6.655618,1.65564 0.413993,-0.98612 -0.62172,-1.75313 -1.477693,-2.386983 -0.102501,-0.07595 -0.202547,-0.14998 -0.297144,-0.222266 -2.062923,-1.899032 -0.634099,-5.483464 2.170548,-5.445383 2.693683,-0.06457 4.185416,3.354293 2.317859,5.298021 -0.658949,0.88741 -0.879126,1.422201 -0.771519,1.841071 0.440394,1.15397 3.129132,1.89074 4.314571,1.62085 0.309614,-0.0513 1.798044,-0.33941 2.279817,-1.23511 l 0.01264,-0.0215 c 0.03934,-0.0752 0.08518,-0.14664 0.13733,-0.21358 0.298606,-0.43022 0.683779,-0.79336 1.130795,-1.0662 0.655574,-0.367968 1.394736,-0.561217 2.14653,-0.561217 0.751759,0 1.490921,0.193249 2.146512,0.561217 0.593531,0.36739 1.0746,0.8909 1.390747,1.51322 0.327697,0.65432 0.494044,1.37757 0.485075,2.10929 v 0.61754 h -6.531479 c 0.06785,0.36534 0.202547,0.71503 0.397354,1.03145 0.219745,0.35665 0.526906,0.65127 0.892372,0.85598 0.398869,0.21689 0.847438,0.3259 1.301348,0.3162 0.461146,0.0159 0.916896,-0.10324 1.311291,-0.3427 0.346175,-0.2236 0.630778,-0.53043 0.827821,-0.89238 l 0.04133,-0.0778 h 1.589361 l -0.0794,0.20197 c -0.269137,0.70757 -0.733604,1.32419 -1.339425,1.77817 -0.612587,0.46025 -1.407277,0.69369 -2.364218,0.69369 -0.75544,0.0146 -1.500233,-0.17953 -2.152323,-0.56126 -0.608654,-0.36533 -1.105675,-0.89039 -1.437107,-1.51819 -0.02815,-0.0513 -0.05288,-0.10433 -0.07778,-0.15731 0,0 -1.309577,-2.04636 -2.799649,-2.04636 -1.302954,-0.007 -1.321198,1.75831 -0.70363,2.69539 0.3212,0.42384 0.852635,0.86754 1.645682,1.36423 z m 5.452006,-6.78311 c -0.70861,0 -1.279801,0.21191 -1.701985,0.62912 -0.390786,0.38755 -0.660049,0.88063 -0.774822,1.41889 h 4.95531 c -0.107914,-0.5393 -0.375644,-1.03369 -0.768234,-1.41889 -0.229021,-0.21318 -0.498213,-0.3786 -0.791856,-0.48663 -0.293626,-0.10799 -0.605839,-0.15644 -0.918395,-0.14249 z m -2.480127,15.2914 c 0.66225,0 1.158947,-0.15896 1.490072,-0.47185 0.170715,-0.17028 0.30384,-0.3746 0.390533,-0.59965 0.08662,-0.22504 0.125239,-0.4658 0.112787,-0.70666 0.01264,-0.23802 -0.02562,-0.47597 -0.111163,-0.69845 -0.08554,-0.22245 -0.216894,-0.42445 -0.385498,-0.59294 -0.331107,-0.30629 -0.827821,-0.47185 -1.490072,-0.47185 h -2.774818 v 3.5414 z"
       fill="#002ddc"
       id="path2-4-3"
       style="display:inline;fill:#002ddc;fill-opacity:1;stroke-width:0.360469"
       inkscape:export-filename="C:\Users\Agathe\Desktop\rect255235-1.png"
       inkscape:export-xdpi="150"
       inkscape:export-ydpi="150" />
    <rect
       style="display:inline;fill:#92ffed;fill-opacity:0.383387;stroke:none;stroke-width:0.653264;stroke-linecap:round;stroke-linejoin:round;stroke-miterlimit:4;stroke-dasharray:none;stroke-opacity:0.41853;paint-order:fill markers stroke;stop-color:#000000"
       id="rect369288"
       width="105.67831"
       height="5.4661202"
       x="68.561295"
       y="104.07226"
       inkscape:export-filename="C:\Users\Agathe\Desktop\rect255235-1.png"
       inkscape:export-xdpi="150"
       inkscape:export-ydpi="150" />
    <rect
       style="display:inline;fill:#92ffed;fill-opacity:0.383387;stroke:none;stroke-width:0.540565;stroke-linecap:round;stroke-linejoin:round;stroke-miterlimit:4;stroke-dasharray:none;stroke-opacity:0.41853;paint-order:fill markers stroke;stop-color:#000000"
       id="rect369288-8"
       width="72.361015"
       height="5.4661202"
       x="68.561295"
       y="114.96059"
       inkscape:export-filename="C:\Users\Agathe\Desktop\rect255235-1.png"
       inkscape:export-xdpi="150"
       inkscape:export-ydpi="150" />
    <g
       aria-label="Portail des données
géolocalisées"
       id="text19962-2-3-5"
       style="font-size:11.7496px;line-height:0.85;font-family:Roboto;-inkscape-font-specification:'Roboto, Normal';display:inline;fill:#002ddc;stroke-width:0.763395">
      <path
         d="m 74.500522,98.893604 q 0.740225,0 1.304206,0.305489 0.563981,0.30549 0.86947,0.869467 0.317239,0.55223 0.317239,1.28071 0,0.71673 -0.317239,1.26896 -0.317239,0.55223 -0.904719,0.85772 -0.57573,0.29374 -1.339454,0.29374 h -1.879936 q -0.05875,0 -0.05875,0.0588 v 3.16064 q 0,0.0588 -0.047,0.10574 -0.03525,0.0353 -0.094,0.0353 h -1.080963 q -0.05875,0 -0.105746,-0.0353 -0.03525,-0.047 -0.03525,-0.10574 v -7.954481 q 0,-0.05875 0.03525,-0.094 0.047,-0.047 0.105746,-0.047 z m -0.199743,3.771626 q 0.59923,0 0.963467,-0.35249 0.364238,-0.35249 0.364238,-0.92822 0,-0.58748 -0.364238,-0.95172 -0.364237,-0.36424 -0.963467,-0.36424 h -1.75069 q -0.05875,0 -0.05875,0.0587 v 2.47917 q 0,0.0587 0.05875,0.0587 z"
         style="font-weight:600;font-family:Barlow;-inkscape-font-specification:'Barlow Semi-Bold'"
         id="path2346" />
      <path
         d="m 80.316548,107.22407 q -0.928218,0 -1.597945,-0.46998 -0.657978,-0.46999 -0.928219,-1.30421 -0.199743,-0.63448 -0.199743,-1.33945 0,-0.75198 0.187994,-1.33946 0.27024,-0.82247 0.939968,-1.2807 0.669727,-0.45824 1.609695,-0.45824 0.892969,0 1.539197,0.45824 0.657978,0.45823 0.928219,1.26895 0.211493,0.56398 0.211493,1.33946 0,0.74022 -0.199743,1.33945 -0.270241,0.83422 -0.928219,1.31596 -0.657978,0.46998 -1.562697,0.46998 z m 0,-1.17496 q 0.434735,0 0.740225,-0.24674 0.317239,-0.24674 0.458234,-0.69323 0.117496,-0.38773 0.117496,-0.98696 0,-0.63448 -0.117496,-0.98697 -0.129245,-0.44649 -0.446484,-0.68148 -0.31724,-0.24674 -0.775474,-0.24674 -0.434735,0 -0.751974,0.24674 -0.31724,0.23499 -0.458235,0.68148 -0.117496,0.41124 -0.117496,0.98697 0,0.57573 0.117496,0.98696 0.129246,0.44649 0.446485,0.69323 0.328989,0.24674 0.787223,0.24674 z"
         style="font-weight:600;font-family:Barlow;-inkscape-font-specification:'Barlow Semi-Bold'"
         id="path2348" />
      <path
         d="m 87.096064,101.05553 q 0.375987,0 0.657978,0.15274 0.094,0.047 0.0705,0.17625 l -0.199744,1.05746 q -0.01175,0.141 -0.164494,0.0823 -0.176244,-0.0588 -0.411236,-0.0588 -0.152745,0 -0.234992,0.0118 -0.493483,0.0235 -0.822472,0.35249 -0.328989,0.31724 -0.328989,0.83422 v 3.32514 q 0,0.0588 -0.047,0.10574 -0.03525,0.0353 -0.094,0.0353 h -1.080963 q -0.05875,0 -0.105747,-0.0353 -0.03525,-0.047 -0.03525,-0.10574 v -5.72206 q 0,-0.0588 0.03525,-0.094 0.047,-0.047 0.105747,-0.047 h 1.080963 q 0.05875,0 0.094,0.047 0.047,0.0352 0.047,0.094 v 0.52873 q 0,0.047 0.01175,0.0588 0.0235,0 0.047,-0.0353 0.493483,-0.76372 1.374703,-0.76372 z"
         style="font-weight:600;font-family:Barlow;-inkscape-font-specification:'Barlow Semi-Bold'"
         id="path2350" />
      <path
         d="m 92.007378,102.08949 q 0,0.0588 -0.047,0.10575 -0.03525,0.0353 -0.094,0.0353 h -1.19846 q -0.05875,0 -0.05875,0.0588 v 2.83165 q 0,0.44649 0.187994,0.64623 0.199743,0.19974 0.622729,0.19974 h 0.352488 q 0.05875,0 0.094,0.047 0.047,0.0353 0.047,0.094 v 0.88122 q 0,0.12924 -0.140995,0.15274 l -0.610979,0.0118 q -0.928219,0 -1.386453,-0.31724 -0.458235,-0.31724 -0.469984,-1.19846 v -3.34863 q 0,-0.0588 -0.05875,-0.0588 h -0.669727 q -0.05875,0 -0.105747,-0.0353 -0.03525,-0.047 -0.03525,-0.10575 v -0.82247 q 0,-0.0588 0.03525,-0.094 0.047,-0.047 0.105747,-0.047 h 0.669727 q 0.05875,0 0.05875,-0.0588 v -1.374704 q 0,-0.05875 0.03525,-0.094 0.047,-0.047 0.105746,-0.047 h 1.022215 q 0.05875,0 0.094,0.047 0.047,0.03525 0.047,0.094 v 1.374704 q 0,0.0588 0.05875,0.0588 h 1.19846 q 0.05875,0 0.094,0.047 0.047,0.0352 0.047,0.094 z"
         style="font-weight:600;font-family:Barlow;-inkscape-font-specification:'Barlow Semi-Bold'"
         id="path2352" />
      <path
         d="m 95.508743,101.03203 q 0.740225,0 1.304206,0.25849 0.56398,0.25849 0.86947,0.71673 0.30549,0.44648 0.30549,1.02221 v 3.95962 q 0,0.0588 -0.047,0.10574 -0.03525,0.0353 -0.094,0.0353 H 96.76595 q -0.05875,0 -0.105746,-0.0353 -0.03525,-0.047 -0.03525,-0.10574 v -0.37599 q 0,-0.0353 -0.0235,-0.0353 -0.0235,-0.0117 -0.047,0.0118 -0.57573,0.63448 -1.668443,0.63448 -0.88122,0 -1.45695,-0.44648 -0.563981,-0.44649 -0.563981,-1.32771 0,-0.91647 0.634478,-1.4217 0.646228,-0.51698 1.809439,-0.51698 h 1.257207 q 0.05875,0 0.05875,-0.0588 v -0.28199 q 0,-0.45824 -0.270241,-0.70498 -0.270241,-0.25849 -0.810722,-0.25849 -0.446485,0 -0.728475,0.1645 -0.270241,0.15274 -0.340739,0.43473 -0.03525,0.141 -0.164494,0.1175 l -1.139711,-0.141 q -0.05875,-0.0117 -0.105747,-0.0352 -0.03525,-0.0353 -0.0235,-0.0822 0.094,-0.71673 0.763724,-1.17496 0.681477,-0.45824 1.703692,-0.45824 z m -0.28199,5.11108 q 0.57573,0 0.986966,-0.30549 0.411236,-0.30549 0.411236,-0.77548 v -0.55223 q 0,-0.0588 -0.05875,-0.0588 h -0.986966 q -0.622729,0 -0.986967,0.235 -0.352488,0.23499 -0.352488,0.66972 0,0.37599 0.270241,0.58748 0.28199,0.19975 0.716726,0.19975 z"
         style="font-weight:600;font-family:Barlow;-inkscape-font-specification:'Barlow Semi-Bold'"
         id="path2354" />
      <path
         d="m 100.12633,100.30356 q -0.364239,0 -0.599231,-0.235 -0.234992,-0.234988 -0.234992,-0.599226 0,-0.364238 0.234992,-0.59923 0.234992,-0.234992 0.599231,-0.234992 0.36424,0 0.59923,0.234992 0.23499,0.234992 0.23499,0.59923 0,0.364238 -0.23499,0.599226 -0.23499,0.235 -0.59923,0.235 z m -0.563983,6.82651 q -0.05875,0 -0.105746,-0.0353 -0.03525,-0.047 -0.03525,-0.10574 v -5.73381 q 0,-0.0587 0.03525,-0.094 0.047,-0.047 0.105746,-0.047 h 1.080963 q 0.0588,0 0.094,0.047 0.047,0.0352 0.047,0.094 v 5.73381 q 0,0.0588 -0.047,0.10574 -0.0352,0.0353 -0.094,0.0353 z"
         style="font-weight:600;font-family:Barlow;-inkscape-font-specification:'Barlow Semi-Bold'"
         id="path2356" />
      <path
         d="m 102.48799,107.13007 q -0.0588,0 -0.10575,-0.0353 -0.0352,-0.047 -0.0352,-0.10574 v -7.942732 q 0,-0.05875 0.0352,-0.094 0.047,-0.047 0.10575,-0.047 h 1.08096 q 0.0588,0 0.094,0.047 0.047,0.03525 0.047,0.094 v 7.942732 q 0,0.0588 -0.047,0.10574 -0.0352,0.0353 -0.094,0.0353 z"
         style="font-weight:600;font-family:Barlow;-inkscape-font-specification:'Barlow Semi-Bold'"
         id="path2358" />
      <path
         d="m 111.22966,99.046348 q 0,-0.05875 0.0353,-0.094 0.047,-0.047 0.10575,-0.047 h 1.08096 q 0.0587,0 0.094,0.047 0.047,0.03525 0.047,0.094 v 7.942732 q 0,0.0588 -0.047,0.10574 -0.0353,0.0353 -0.094,0.0353 h -1.08096 q -0.0588,0 -0.10575,-0.0353 -0.0353,-0.047 -0.0353,-0.10574 v -0.35249 q 0,-0.0353 -0.0235,-0.047 -0.0235,-0.0118 -0.047,0.0235 -0.51698,0.61098 -1.3512,0.61098 -0.83422,0 -1.40995,-0.43473 -0.57573,-0.43474 -0.83423,-1.21021 -0.21149,-0.65798 -0.21149,-1.4687 0,-0.83423 0.19975,-1.43346 0.25849,-0.77547 0.83422,-1.2102 0.57573,-0.43474 1.4452,-0.43474 0.81072,0 1.3277,0.58748 0.0235,0.0235 0.047,0.0235 0.0235,-0.0118 0.0235,-0.047 z m -0.28199,6.438782 q 0.27024,-0.48173 0.27024,-1.36295 0,-0.91647 -0.29374,-1.39821 -0.31724,-0.51698 -0.89297,-0.51698 -0.59923,0 -0.93997,0.49348 -0.35248,0.51699 -0.35248,1.43346 0,0.82247 0.28199,1.3512 0.32898,0.56398 0.99871,0.56398 0.59923,0 0.92822,-0.56398 z"
         style="font-weight:600;font-family:Barlow;-inkscape-font-specification:'Barlow Semi-Bold'"
         id="path2360" />
      <path
         d="m 119.13712,103.45245 q 0.047,0.29374 0.047,0.65798 l -0.0117,0.36423 q 0,0.141 -0.141,0.141 h -3.67762 q -0.0588,0 -0.0588,0.0587 0.0353,0.38773 0.10575,0.52873 0.28199,0.84597 1.3747,0.85772 0.79897,0 1.26896,-0.65798 0.047,-0.0705 0.11749,-0.0705 0.047,0 0.0823,0.0353 l 0.72847,0.59923 q 0.10575,0.0823 0.0352,0.188 -0.36423,0.51698 -0.97521,0.79897 -0.59923,0.28199 -1.33946,0.28199 -0.91647,0 -1.56269,-0.41124 -0.63448,-0.41123 -0.92822,-1.15146 -0.27024,-0.63448 -0.27024,-1.76244 0,-0.68147 0.14099,-1.10446 0.23499,-0.82247 0.88122,-1.29246 0.65798,-0.48173 1.57445,-0.48173 2.31467,0 2.60841,2.42042 z m -2.60841,-1.24546 q -0.43474,0 -0.72848,0.22324 -0.28199,0.2115 -0.39948,0.59923 -0.0705,0.19975 -0.094,0.51699 -0.0235,0.0587 0.047,0.0587 h 2.38517 q 0.0587,0 0.0587,-0.0587 -0.0235,-0.29374 -0.0705,-0.44649 -0.10575,-0.42299 -0.42299,-0.65798 -0.30549,-0.23499 -0.77547,-0.23499 z"
         style="font-weight:600;font-family:Barlow;-inkscape-font-specification:'Barlow Semi-Bold'"
         id="path2362" />
      <path
         d="m 122.56797,107.20057 q -0.74023,0 -1.30421,-0.21149 -0.55223,-0.22324 -0.85772,-0.59923 -0.30549,-0.38774 -0.30549,-0.85772 v -0.10575 q 0,-0.0587 0.0353,-0.094 0.047,-0.047 0.10575,-0.047 h 1.03396 q 0.0588,0 0.094,0.047 0.047,0.0353 0.047,0.094 v 0.0235 q 0,0.29374 0.31723,0.51698 0.32899,0.2115 0.82248,0.2115 0.46998,0 0.76372,-0.188 0.29374,-0.19974 0.29374,-0.49348 0,-0.27024 -0.24674,-0.39949 -0.23499,-0.14099 -0.77547,-0.29374 l -0.44649,-0.14099 q -0.59923,-0.17625 -1.01046,-0.37599 -0.41124,-0.19974 -0.69323,-0.54048 -0.28199,-0.35249 -0.28199,-0.89297 0,-0.82247 0.64623,-1.30421 0.64622,-0.49348 1.70369,-0.49348 0.71672,0 1.25721,0.23499 0.54048,0.22324 0.83422,0.63448 0.29374,0.39949 0.29374,0.91647 0,0.0588 -0.047,0.10575 -0.0353,0.0352 -0.094,0.0352 h -0.99871 q -0.0587,0 -0.10575,-0.0352 -0.0352,-0.047 -0.0352,-0.10575 0,-0.30549 -0.30549,-0.50523 -0.29374,-0.2115 -0.81072,-0.2115 -0.45824,0 -0.75198,0.17625 -0.28199,0.16449 -0.28199,0.46998 0,0.28199 0.27024,0.43474 0.282,0.14099 0.92822,0.31724 l 0.25849,0.0705 q 0.62273,0.188 1.04572,0.38774 0.42298,0.18799 0.71672,0.54048 0.29374,0.34074 0.29374,0.89297 0,0.83422 -0.65797,1.31596 -0.65798,0.46998 -1.75069,0.46998 z"
         style="font-weight:600;font-family:Barlow;-inkscape-font-specification:'Barlow Semi-Bold'"
         id="path2364" />
      <path
         d="m 132.2026,99.046348 q 0,-0.05875 0.0353,-0.094 0.047,-0.047 0.10575,-0.047 h 1.08096 q 0.0587,0 0.094,0.047 0.047,0.03525 0.047,0.094 v 7.942732 q 0,0.0588 -0.047,0.10574 -0.0353,0.0353 -0.094,0.0353 h -1.08096 q -0.0588,0 -0.10575,-0.0353 -0.0353,-0.047 -0.0353,-0.10574 v -0.35249 q 0,-0.0353 -0.0235,-0.047 -0.0235,-0.0118 -0.047,0.0235 -0.51699,0.61098 -1.35121,0.61098 -0.83422,0 -1.40995,-0.43473 -0.57573,-0.43474 -0.83422,-1.21021 -0.2115,-0.65798 -0.2115,-1.4687 0,-0.83423 0.19975,-1.43346 0.25849,-0.77547 0.83422,-1.2102 0.57573,-0.43474 1.4452,-0.43474 0.81072,0 1.32771,0.58748 0.0235,0.0235 0.047,0.0235 0.0235,-0.0118 0.0235,-0.047 z m -0.28199,6.438782 q 0.27024,-0.48173 0.27024,-1.36295 0,-0.91647 -0.29374,-1.39821 -0.31724,-0.51698 -0.89297,-0.51698 -0.59923,0 -0.93996,0.49348 -0.35249,0.51699 -0.35249,1.43346 0,0.82247 0.28199,1.3512 0.32899,0.56398 0.99871,0.56398 0.59923,0 0.92822,-0.56398 z"
         style="font-weight:600;font-family:Barlow;-inkscape-font-specification:'Barlow Semi-Bold'"
         id="path2366" />
      <path
         d="m 137.59565,107.22407 q -0.92822,0 -1.59794,-0.46998 -0.65798,-0.46999 -0.92822,-1.30421 -0.19975,-0.63448 -0.19975,-1.33945 0,-0.75198 0.188,-1.33946 0.27024,-0.82247 0.93997,-1.2807 0.66972,-0.45824 1.60969,-0.45824 0.89297,0 1.5392,0.45824 0.65798,0.45823 0.92822,1.26895 0.21149,0.56398 0.21149,1.33946 0,0.74022 -0.19974,1.33945 -0.27024,0.83422 -0.92822,1.31596 -0.65798,0.46998 -1.5627,0.46998 z m 0,-1.17496 q 0.43474,0 0.74023,-0.24674 0.31724,-0.24674 0.45823,-0.69323 0.1175,-0.38773 0.1175,-0.98696 0,-0.63448 -0.1175,-0.98697 -0.12925,-0.44649 -0.44648,-0.68148 -0.31724,-0.24674 -0.77548,-0.24674 -0.43473,0 -0.75197,0.24674 -0.31724,0.23499 -0.45824,0.68148 -0.11749,0.41124 -0.11749,0.98697 0,0.57573 0.11749,0.98696 0.12925,0.44649 0.44649,0.69323 0.32899,0.24674 0.78722,0.24674 z"
         style="font-weight:600;font-family:Barlow;-inkscape-font-specification:'Barlow Semi-Bold'"
         id="path2368" />
      <path
         d="m 144.45742,101.03203 q 0.95171,0 1.51569,0.56398 0.57573,0.56398 0.57573,1.5392 v 3.85387 q 0,0.0588 -0.047,0.10574 -0.0352,0.0353 -0.094,0.0353 h -1.08096 q -0.0588,0 -0.10575,-0.0353 -0.0352,-0.047 -0.0352,-0.10574 v -3.57188 q 0,-0.54048 -0.30549,-0.86947 -0.30549,-0.34074 -0.81072,-0.34074 -0.50523,0 -0.82247,0.32899 -0.30549,0.32899 -0.30549,0.86947 v 3.58363 q 0,0.0588 -0.047,0.10574 -0.0353,0.0353 -0.094,0.0353 h -1.08096 q -0.0588,0 -0.10575,-0.0353 -0.0353,-0.047 -0.0353,-0.10574 v -5.72206 q 0,-0.0588 0.0353,-0.094 0.047,-0.047 0.10575,-0.047 h 1.08096 q 0.0587,0 0.094,0.047 0.047,0.0352 0.047,0.094 v 0.37599 q 0,0.0352 0.0235,0.047 0.0235,0.0117 0.0353,-0.0235 0.48173,-0.63448 1.45695,-0.63448 z"
         style="font-weight:600;font-family:Barlow;-inkscape-font-specification:'Barlow Semi-Bold'"
         id="path2370" />
      <path
         d="m 150.84918,101.03203 q 0.95172,0 1.5157,0.56398 0.57573,0.56398 0.57573,1.5392 v 3.85387 q 0,0.0588 -0.047,0.10574 -0.0352,0.0353 -0.094,0.0353 h -1.08096 q -0.0588,0 -0.10575,-0.0353 -0.0352,-0.047 -0.0352,-0.10574 v -3.57188 q 0,-0.54048 -0.30549,-0.86947 -0.30549,-0.34074 -0.81072,-0.34074 -0.50523,0 -0.82247,0.32899 -0.30549,0.32899 -0.30549,0.86947 v 3.58363 q 0,0.0588 -0.047,0.10574 -0.0353,0.0353 -0.094,0.0353 h -1.08096 q -0.0588,0 -0.10575,-0.0353 -0.0352,-0.047 -0.0352,-0.10574 v -5.72206 q 0,-0.0588 0.0352,-0.094 0.047,-0.047 0.10575,-0.047 h 1.08096 q 0.0588,0 0.094,0.047 0.047,0.0352 0.047,0.094 v 0.37599 q 0,0.0352 0.0235,0.047 0.0235,0.0117 0.0353,-0.0235 0.48173,-0.63448 1.45695,-0.63448 z"
         style="font-weight:600;font-family:Barlow;-inkscape-font-specification:'Barlow Semi-Bold'"
         id="path2372" />
      <path
         d="m 159.37935,103.45245 q 0.047,0.29374 0.047,0.65798 l -0.0118,0.36423 q 0,0.141 -0.14099,0.141 h -3.67763 q -0.0588,0 -0.0588,0.0587 0.0353,0.38773 0.10575,0.52873 0.28199,0.84597 1.3747,0.85772 0.79898,0 1.26896,-0.65798 0.047,-0.0705 0.1175,-0.0705 0.047,0 0.0822,0.0353 l 0.72848,0.59923 q 0.10574,0.0823 0.0353,0.188 -0.36424,0.51698 -0.97522,0.79897 -0.59923,0.28199 -1.33945,0.28199 -0.91647,0 -1.5627,-0.41124 -0.63448,-0.41123 -0.92822,-1.15146 -0.27024,-0.63448 -0.27024,-1.76244 0,-0.68147 0.14099,-1.10446 0.235,-0.82247 0.88122,-1.29246 0.65798,-0.48173 1.57445,-0.48173 2.31467,0 2.60841,2.42042 z m -2.60841,-1.24546 q -0.43473,0 -0.72847,0.22324 -0.28199,0.2115 -0.39949,0.59923 -0.0705,0.19975 -0.094,0.51699 -0.0235,0.0587 0.047,0.0587 h 2.38517 q 0.0587,0 0.0587,-0.0587 -0.0235,-0.29374 -0.0705,-0.44649 -0.10575,-0.42299 -0.42299,-0.65798 -0.30548,-0.23499 -0.77547,-0.23499 z m -0.57573,-1.83294 q -0.0823,0 -0.10575,-0.047 -0.0235,-0.047 0.0118,-0.11749 l 0.64623,-1.21021 q 0.047,-0.094 0.17625,-0.094 h 0.92821 q 0.0822,0 0.10575,0.05875 0.0352,0.047 -0.0118,0.117496 l -0.81072,1.198464 q -0.0588,0.094 -0.1645,0.094 z"
         style="font-weight:600;font-family:Barlow;-inkscape-font-specification:'Barlow Semi-Bold'"
         id="path2374" />
      <path
         d="m 165.72412,103.45245 q 0.047,0.29374 0.047,0.65798 l -0.0118,0.36423 q 0,0.141 -0.14099,0.141 h -3.67763 q -0.0587,0 -0.0587,0.0587 0.0352,0.38773 0.10574,0.52873 0.28199,0.84597 1.37471,0.85772 0.79897,0 1.26895,-0.65798 0.047,-0.0705 0.1175,-0.0705 0.047,0 0.0823,0.0353 l 0.72847,0.59923 q 0.10575,0.0823 0.0352,0.188 -0.36424,0.51698 -0.97522,0.79897 -0.59923,0.28199 -1.33945,0.28199 -0.91647,0 -1.5627,-0.41124 -0.63448,-0.41123 -0.92822,-1.15146 -0.27024,-0.63448 -0.27024,-1.76244 0,-0.68147 0.141,-1.10446 0.23499,-0.82247 0.88122,-1.29246 0.65797,-0.48173 1.57444,-0.48173 2.31467,0 2.60841,2.42042 z m -2.60841,-1.24546 q -0.43473,0 -0.72847,0.22324 -0.28199,0.2115 -0.39949,0.59923 -0.0705,0.19975 -0.094,0.51699 -0.0235,0.0587 0.047,0.0587 h 2.38517 q 0.0588,0 0.0588,-0.0587 -0.0235,-0.29374 -0.0705,-0.44649 -0.10574,-0.42299 -0.42298,-0.65798 -0.30549,-0.23499 -0.77548,-0.23499 z"
         style="font-weight:600;font-family:Barlow;-inkscape-font-specification:'Barlow Semi-Bold'"
         id="path2376" />
      <path
         d="m 169.15498,107.20057 q -0.74023,0 -1.30421,-0.21149 -0.55223,-0.22324 -0.85772,-0.59923 -0.30549,-0.38774 -0.30549,-0.85772 v -0.10575 q 0,-0.0587 0.0353,-0.094 0.047,-0.047 0.10574,-0.047 h 1.03397 q 0.0588,0 0.094,0.047 0.047,0.0353 0.047,0.094 v 0.0235 q 0,0.29374 0.31723,0.51698 0.32899,0.2115 0.82248,0.2115 0.46998,0 0.76372,-0.188 0.29374,-0.19974 0.29374,-0.49348 0,-0.27024 -0.24674,-0.39949 -0.23499,-0.14099 -0.77547,-0.29374 l -0.44649,-0.14099 q -0.59923,-0.17625 -1.01047,-0.37599 -0.41123,-0.19974 -0.69322,-0.54048 -0.28199,-0.35249 -0.28199,-0.89297 0,-0.82247 0.64623,-1.30421 0.64622,-0.49348 1.70369,-0.49348 0.71672,0 1.25721,0.23499 0.54048,0.22324 0.83422,0.63448 0.29374,0.39949 0.29374,0.91647 0,0.0588 -0.047,0.10575 -0.0353,0.0352 -0.094,0.0352 h -0.99871 q -0.0588,0 -0.10575,-0.0352 -0.0352,-0.047 -0.0352,-0.10575 0,-0.30549 -0.30549,-0.50523 -0.29374,-0.2115 -0.81072,-0.2115 -0.45824,0 -0.75198,0.17625 -0.28199,0.16449 -0.28199,0.46998 0,0.28199 0.27024,0.43474 0.28199,0.14099 0.92822,0.31724 l 0.25849,0.0705 q 0.62273,0.188 1.04572,0.38774 0.42298,0.18799 0.71672,0.54048 0.29374,0.34074 0.29374,0.89297 0,0.83422 -0.65797,1.31596 -0.65798,0.46998 -1.75069,0.46998 z"
         style="font-weight:600;font-family:Barlow;-inkscape-font-specification:'Barlow Semi-Bold'"
         id="path2378" />
      <path
         d="m 74.747264,112.23332 q 0,-0.0588 0.03525,-0.094 0.047,-0.047 0.105746,-0.047 h 1.080963 q 0.05875,0 0.094,0.047 0.047,0.0353 0.047,0.094 v 5.46356 q 0,1.4687 -0.845971,2.09143 -0.834221,0.63448 -2.197175,0.63448 -0.364238,0 -0.716726,-0.0353 -0.129245,-0.0118 -0.129245,-0.15275 l 0.03525,-0.96346 q 0,-0.12925 0.164494,-0.12925 0.340738,0.0352 0.610979,0.0352 0.88122,0 1.292456,-0.35249 0.422986,-0.34074 0.422986,-1.16321 v -0.094 q 0,-0.0352 -0.0235,-0.0352 -0.0235,-0.0118 -0.047,0.0117 -0.481733,0.51698 -1.362953,0.51698 -0.763724,0 -1.398203,-0.38774 -0.634478,-0.38773 -0.88122,-1.18671 -0.152745,-0.55223 -0.152745,-1.4217 0,-0.97522 0.187994,-1.4922 0.234992,-0.71672 0.810722,-1.13971 0.575731,-0.43474 1.351204,-0.43474 0.928219,0 1.445201,0.54049 0.0235,0.0353 0.047,0.0235 0.0235,-0.0117 0.0235,-0.047 z m -0.08225,3.86562 q 0.047,-0.17625 0.05875,-0.37599 0.0235,-0.21149 0.0235,-0.66973 0,-0.44648 -0.0235,-0.63448 -0.01175,-0.19974 -0.0705,-0.38773 -0.094,-0.38774 -0.387737,-0.62273 -0.28199,-0.235 -0.728475,-0.235 -0.422986,0 -0.716726,0.235 -0.29374,0.23499 -0.422985,0.62273 -0.140995,0.32898 -0.140995,1.03396 0,0.72848 0.117496,1.02222 0.117496,0.37598 0.422985,0.62272 0.317239,0.235 0.751975,0.235 0.458234,0 0.740224,-0.235 0.281991,-0.23499 0.375988,-0.61097 z"
         style="font-weight:600;font-family:Barlow;-inkscape-font-specification:'Barlow Semi-Bold'"
         id="path2380" />
      <path
         d="m 82.584245,114.41874 q 0.047,0.29374 0.047,0.65798 l -0.01175,0.36424 q 0,0.14099 -0.140996,0.14099 h -3.677625 q -0.05875,0 -0.05875,0.0587 0.03525,0.38774 0.105747,0.52873 0.28199,0.84597 1.374703,0.85772 0.798973,0 1.268957,-0.65797 0.047,-0.0705 0.117496,-0.0705 0.047,0 0.08225,0.0352 l 0.728475,0.59923 q 0.105747,0.0822 0.03525,0.18799 -0.364237,0.51698 -0.975217,0.79897 -0.599229,0.28199 -1.339454,0.28199 -0.916469,0 -1.562697,-0.41123 -0.634478,-0.41124 -0.928218,-1.15146 -0.270241,-0.63448 -0.270241,-1.76244 0,-0.68148 0.140995,-1.10447 0.234992,-0.82247 0.88122,-1.29245 0.657978,-0.48174 1.574446,-0.48174 2.314672,0 2.608412,2.42042 z m -2.608412,-1.24546 q -0.434735,0 -0.728475,0.22325 -0.28199,0.21149 -0.399486,0.59923 -0.0705,0.19974 -0.094,0.51698 -0.0235,0.0588 0.047,0.0588 h 2.385169 q 0.05875,0 0.05875,-0.0588 -0.0235,-0.29374 -0.0705,-0.44649 -0.105747,-0.42298 -0.422986,-0.65797 -0.305489,-0.235 -0.775474,-0.235 z m -0.57573,-1.83293 q -0.08225,0 -0.105746,-0.047 -0.0235,-0.047 0.01175,-0.1175 l 0.646228,-1.21021 q 0.047,-0.094 0.176244,-0.094 h 0.928219 q 0.08225,0 0.105746,0.0588 0.03525,0.047 -0.01175,0.11749 l -0.810723,1.19846 q -0.05875,0.094 -0.164494,0.094 z"
         style="font-weight:600;font-family:Barlow;-inkscape-font-specification:'Barlow Semi-Bold'"
         id="path2382" />
      <path
         d="m 86.414603,118.19036 q -0.928219,0 -1.597946,-0.46998 -0.657978,-0.46998 -0.928218,-1.30421 -0.199744,-0.63447 -0.199744,-1.33945 0,-0.75197 0.187994,-1.33945 0.270241,-0.82248 0.939968,-1.28071 0.669727,-0.45824 1.609695,-0.45824 0.89297,0 1.539198,0.45824 0.657978,0.45823 0.928218,1.26896 0.211493,0.56398 0.211493,1.33945 0,0.74023 -0.199743,1.33946 -0.270241,0.83422 -0.928219,1.31595 -0.657977,0.46998 -1.562696,0.46998 z m 0,-1.17496 q 0.434735,0 0.740224,-0.24674 0.31724,-0.24674 0.458235,-0.69322 0.117496,-0.38774 0.117496,-0.98697 0,-0.63448 -0.117496,-0.98697 -0.129246,-0.44648 -0.446485,-0.68147 -0.317239,-0.24675 -0.775474,-0.24675 -0.434735,0 -0.751974,0.24675 -0.317239,0.23499 -0.458234,0.68147 -0.117496,0.41124 -0.117496,0.98697 0,0.57573 0.117496,0.98697 0.129245,0.44648 0.446484,0.69322 0.328989,0.24674 0.787224,0.24674 z"
         style="font-weight:600;font-family:Barlow;-inkscape-font-specification:'Barlow Semi-Bold'"
         id="path2384" />
      <path
         d="m 90.538709,118.09637 q -0.05875,0 -0.105746,-0.0352 -0.03525,-0.047 -0.03525,-0.10575 v -7.94273 q 0,-0.0588 0.03525,-0.094 0.047,-0.047 0.105746,-0.047 h 1.080964 q 0.05875,0 0.094,0.047 0.047,0.0352 0.047,0.094 v 7.94273 q 0,0.0588 -0.047,0.10575 -0.03525,0.0352 -0.094,0.0352 z"
         style="font-weight:600;font-family:Barlow;-inkscape-font-specification:'Barlow Semi-Bold'"
         id="path2386" />
      <path
         d="m 95.755514,118.19036 q -0.928219,0 -1.597946,-0.46998 -0.657978,-0.46998 -0.928219,-1.30421 -0.199743,-0.63447 -0.199743,-1.33945 0,-0.75197 0.187994,-1.33945 0.270241,-0.82248 0.939968,-1.28071 0.669727,-0.45824 1.609695,-0.45824 0.89297,0 1.539198,0.45824 0.657977,0.45823 0.928218,1.26896 0.211493,0.56398 0.211493,1.33945 0,0.74023 -0.199743,1.33946 -0.270241,0.83422 -0.928219,1.31595 -0.657977,0.46998 -1.562696,0.46998 z m 0,-1.17496 q 0.434735,0 0.740224,-0.24674 0.31724,-0.24674 0.458235,-0.69322 0.117496,-0.38774 0.117496,-0.98697 0,-0.63448 -0.117496,-0.98697 -0.129246,-0.44648 -0.446485,-0.68147 -0.317239,-0.24675 -0.775474,-0.24675 -0.434735,0 -0.751974,0.24675 -0.317239,0.23499 -0.458234,0.68147 -0.117497,0.41124 -0.117497,0.98697 0,0.57573 0.117497,0.98697 0.129245,0.44648 0.446484,0.69322 0.328989,0.24674 0.787224,0.24674 z"
         style="font-weight:600;font-family:Barlow;-inkscape-font-specification:'Barlow Semi-Bold'"
         id="path2388" />
      <path
         d="m 102.24129,118.19036 q -0.90472,0 -1.5627,-0.45823 -0.65798,-0.46998 -0.916467,-1.25721 -0.187993,-0.52873 -0.187993,-1.40995 0,-0.84597 0.187993,-1.38645 0.246747,-0.77548 0.904717,-1.22196 0.66973,-0.45824 1.57445,-0.45824 0.91647,0 1.59794,0.45824 0.68148,0.45823 0.90472,1.15146 0.0588,0.18799 0.0823,0.37599 v 0.0235 q 0,0.11749 -0.12924,0.14099 l -1.05747,0.15275 h -0.0235 q -0.10574,0 -0.14099,-0.1175 0,-0.0588 -0.0117,-0.094 -0.0235,-0.094 -0.047,-0.16449 -0.10575,-0.32899 -0.42299,-0.54048 -0.31724,-0.2115 -0.75197,-0.2115 -0.44649,0 -0.76372,0.235 -0.30549,0.22324 -0.41124,0.62273 -0.1175,0.37598 -0.1175,1.04571 0,0.64623 0.10575,1.04571 0.1175,0.41124 0.42299,0.65798 0.30548,0.23499 0.76372,0.23499 0.44648,0 0.76372,-0.22324 0.32899,-0.23499 0.42299,-0.62273 0.0118,-0.0235 0.0118,-0.0587 0.0117,-0.0118 0.0117,-0.0353 0.0353,-0.141 0.16449,-0.1175 l 1.05747,0.16449 q 0.0587,0.0118 0.094,0.0588 0.047,0.0353 0.0353,0.10575 -0.0353,0.18799 -0.0588,0.27024 -0.22324,0.75197 -0.90472,1.19846 -0.68147,0.43473 -1.59794,0.43473 z"
         style="font-weight:600;font-family:Barlow;-inkscape-font-specification:'Barlow Semi-Bold'"
         id="path2390" />
      <path
         d="m 108.26882,111.99832 q 0.74022,0 1.3042,0.2585 0.56398,0.25849 0.86947,0.71672 0.30549,0.44649 0.30549,1.02222 v 3.95961 q 0,0.0588 -0.047,0.10575 -0.0353,0.0352 -0.094,0.0352 h -1.08097 q -0.0588,0 -0.10574,-0.0352 -0.0353,-0.047 -0.0353,-0.10575 v -0.37598 q 0,-0.0353 -0.0235,-0.0353 -0.0235,-0.0117 -0.047,0.0118 -0.57573,0.63447 -1.66844,0.63447 -0.88122,0 -1.45695,-0.44648 -0.56398,-0.44649 -0.56398,-1.32771 0,-0.91646 0.63447,-1.4217 0.64623,-0.51698 1.80944,-0.51698 h 1.25721 q 0.0588,0 0.0588,-0.0588 v -0.28199 q 0,-0.45823 -0.27024,-0.70497 -0.27024,-0.2585 -0.81073,-0.2585 -0.44648,0 -0.72847,0.1645 -0.27024,0.15274 -0.34074,0.43473 -0.0352,0.141 -0.16449,0.1175 l -1.13971,-0.14099 q -0.0588,-0.0118 -0.10575,-0.0353 -0.0353,-0.0352 -0.0235,-0.0823 0.094,-0.71673 0.76372,-1.17496 0.68148,-0.45824 1.7037,-0.45824 z m -0.28199,5.11108 q 0.57573,0 0.98696,-0.30549 0.41124,-0.30549 0.41124,-0.77547 v -0.55223 q 0,-0.0587 -0.0588,-0.0587 h -0.98697 q -0.62273,0 -0.98696,0.23499 -0.35249,0.23499 -0.35249,0.66973 0,0.37599 0.27024,0.58748 0.28199,0.19974 0.71673,0.19974 z"
         style="font-weight:600;font-family:Barlow;-inkscape-font-specification:'Barlow Semi-Bold'"
         id="path2392" />
      <path
         d="m 112.25192,118.09637 q -0.0588,0 -0.10575,-0.0352 -0.0352,-0.047 -0.0352,-0.10575 v -7.94273 q 0,-0.0588 0.0352,-0.094 0.047,-0.047 0.10575,-0.047 h 1.08096 q 0.0588,0 0.094,0.047 0.047,0.0352 0.047,0.094 v 7.94273 q 0,0.0588 -0.047,0.10575 -0.0352,0.0352 -0.094,0.0352 z"
         style="font-weight:600;font-family:Barlow;-inkscape-font-specification:'Barlow Semi-Bold'"
         id="path2394" />
      <path
         d="m 115.69453,111.26985 q -0.36423,0 -0.59922,-0.23499 -0.235,-0.23499 -0.235,-0.59923 0,-0.36424 0.235,-0.59923 0.23499,-0.23499 0.59922,-0.23499 0.36424,0 0.59923,0.23499 0.235,0.23499 0.235,0.59923 0,0.36424 -0.235,0.59923 -0.23499,0.23499 -0.59923,0.23499 z m -0.56398,6.82652 q -0.0587,0 -0.10574,-0.0352 -0.0353,-0.047 -0.0353,-0.10575 v -5.7338 q 0,-0.0588 0.0353,-0.094 0.047,-0.047 0.10574,-0.047 h 1.08097 q 0.0588,0 0.094,0.047 0.047,0.0352 0.047,0.094 v 5.7338 q 0,0.0588 -0.047,0.10575 -0.0352,0.0352 -0.094,0.0352 z"
         style="font-weight:600;font-family:Barlow;-inkscape-font-specification:'Barlow Semi-Bold'"
         id="path2396" />
      <path
         d="m 120.14762,118.16687 q -0.74022,0 -1.3042,-0.2115 -0.55223,-0.22324 -0.85772,-0.59923 -0.30549,-0.38773 -0.30549,-0.85772 v -0.10574 q 0,-0.0588 0.0352,-0.094 0.047,-0.047 0.10574,-0.047 h 1.03397 q 0.0588,0 0.094,0.047 0.047,0.0352 0.047,0.094 v 0.0235 q 0,0.29374 0.31724,0.51699 0.32899,0.21149 0.82248,0.21149 0.46998,0 0.76372,-0.18799 0.29374,-0.19975 0.29374,-0.49349 0,-0.27024 -0.24674,-0.39948 -0.23499,-0.141 -0.77548,-0.29374 l -0.44648,-0.141 q -0.59923,-0.17624 -1.01047,-0.37599 -0.41123,-0.19974 -0.69322,-0.54048 -0.28199,-0.35249 -0.28199,-0.89297 0,-0.82247 0.64622,-1.3042 0.64623,-0.49349 1.7037,-0.49349 0.71672,0 1.2572,0.235 0.54049,0.22324 0.83423,0.63447 0.29374,0.39949 0.29374,0.91647 0,0.0588 -0.047,0.10575 -0.0352,0.0352 -0.094,0.0352 h -0.99872 q -0.0587,0 -0.10574,-0.0352 -0.0352,-0.047 -0.0352,-0.10575 0,-0.30549 -0.30549,-0.50523 -0.29374,-0.21149 -0.81072,-0.21149 -0.45824,0 -0.75198,0.17624 -0.28199,0.1645 -0.28199,0.46999 0,0.28199 0.27024,0.43473 0.28199,0.141 0.92822,0.31724 l 0.25849,0.0705 q 0.62273,0.18799 1.04572,0.38773 0.42298,0.188 0.71672,0.54049 0.29374,0.34073 0.29374,0.89297 0,0.83422 -0.65797,1.31595 -0.65798,0.46999 -1.7507,0.46999 z"
         style="font-weight:600;font-family:Barlow;-inkscape-font-specification:'Barlow Semi-Bold'"
         id="path2398" />
      <path
         d="m 128.77181,114.41874 q 0.047,0.29374 0.047,0.65798 l -0.0118,0.36424 q 0,0.14099 -0.141,0.14099 h -3.67762 q -0.0588,0 -0.0588,0.0587 0.0353,0.38774 0.10575,0.52873 0.28199,0.84597 1.3747,0.85772 0.79897,0 1.26896,-0.65797 0.047,-0.0705 0.11749,-0.0705 0.047,0 0.0823,0.0352 l 0.72847,0.59923 q 0.10575,0.0822 0.0352,0.18799 -0.36423,0.51698 -0.97521,0.79897 -0.59923,0.28199 -1.33946,0.28199 -0.91647,0 -1.5627,-0.41123 -0.63447,-0.41124 -0.92821,-1.15146 -0.27024,-0.63448 -0.27024,-1.76244 0,-0.68148 0.14099,-1.10447 0.23499,-0.82247 0.88122,-1.29245 0.65798,-0.48174 1.57445,-0.48174 2.31467,0 2.60841,2.42042 z m -2.60841,-1.24546 q -0.43474,0 -0.72848,0.22325 -0.28199,0.21149 -0.39948,0.59923 -0.0705,0.19974 -0.094,0.51698 -0.0235,0.0588 0.047,0.0588 h 2.38517 q 0.0587,0 0.0587,-0.0588 -0.0235,-0.29374 -0.0705,-0.44649 -0.10575,-0.42298 -0.42299,-0.65797 -0.30549,-0.235 -0.77547,-0.235 z m -0.57573,-1.83293 q -0.0823,0 -0.10575,-0.047 -0.0235,-0.047 0.0117,-0.1175 l 0.64623,-1.21021 q 0.047,-0.094 0.17624,-0.094 h 0.92822 q 0.0823,0 0.10575,0.0588 0.0353,0.047 -0.0118,0.11749 l -0.81072,1.19846 q -0.0588,0.094 -0.1645,0.094 z"
         style="font-weight:600;font-family:Barlow;-inkscape-font-specification:'Barlow Semi-Bold'"
         id="path2400" />
      <path
         d="m 135.11658,114.41874 q 0.047,0.29374 0.047,0.65798 l -0.0118,0.36424 q 0,0.14099 -0.141,0.14099 h -3.67762 q -0.0588,0 -0.0588,0.0587 0.0352,0.38774 0.10575,0.52873 0.28199,0.84597 1.3747,0.85772 0.79897,0 1.26896,-0.65797 0.047,-0.0705 0.11749,-0.0705 0.047,0 0.0823,0.0352 l 0.72848,0.59923 q 0.10574,0.0822 0.0352,0.18799 -0.36424,0.51698 -0.97522,0.79897 -0.59923,0.28199 -1.33946,0.28199 -0.91646,0 -1.56269,-0.41123 -0.63448,-0.41124 -0.92822,-1.15146 -0.27024,-0.63448 -0.27024,-1.76244 0,-0.68148 0.14099,-1.10447 0.235,-0.82247 0.88122,-1.29245 0.65798,-0.48174 1.57445,-0.48174 2.31467,0 2.60841,2.42042 z m -2.60841,-1.24546 q -0.43474,0 -0.72848,0.22325 -0.28199,0.21149 -0.39948,0.59923 -0.0705,0.19974 -0.094,0.51698 -0.0235,0.0588 0.047,0.0588 h 2.38517 q 0.0588,0 0.0588,-0.0588 -0.0235,-0.29374 -0.0705,-0.44649 -0.10575,-0.42298 -0.42299,-0.65797 -0.30549,-0.235 -0.77547,-0.235 z"
         style="font-weight:600;font-family:Barlow;-inkscape-font-specification:'Barlow Semi-Bold'"
         id="path2402" />
      <path
         d="m 138.54743,118.16687 q -0.74022,0 -1.3042,-0.2115 -0.55223,-0.22324 -0.85772,-0.59923 -0.30549,-0.38773 -0.30549,-0.85772 v -0.10574 q 0,-0.0588 0.0352,-0.094 0.047,-0.047 0.10575,-0.047 h 1.03397 q 0.0587,0 0.094,0.047 0.047,0.0352 0.047,0.094 v 0.0235 q 0,0.29374 0.31724,0.51699 0.32899,0.21149 0.82247,0.21149 0.46999,0 0.76373,-0.18799 0.29374,-0.19975 0.29374,-0.49349 0,-0.27024 -0.24675,-0.39948 -0.23499,-0.141 -0.77547,-0.29374 l -0.44648,-0.141 q -0.59923,-0.17624 -1.01047,-0.37599 -0.41124,-0.19974 -0.69323,-0.54048 -0.28199,-0.35249 -0.28199,-0.89297 0,-0.82247 0.64623,-1.3042 0.64623,-0.49349 1.70369,-0.49349 0.71673,0 1.25721,0.235 0.54048,0.22324 0.83422,0.63447 0.29374,0.39949 0.29374,0.91647 0,0.0588 -0.047,0.10575 -0.0352,0.0352 -0.094,0.0352 h -0.99872 q -0.0588,0 -0.10574,-0.0352 -0.0352,-0.047 -0.0352,-0.10575 0,-0.30549 -0.30549,-0.50523 -0.29374,-0.21149 -0.81073,-0.21149 -0.45823,0 -0.75197,0.17624 -0.28199,0.1645 -0.28199,0.46999 0,0.28199 0.27024,0.43473 0.28199,0.141 0.92822,0.31724 l 0.25849,0.0705 q 0.62273,0.18799 1.04571,0.38773 0.42299,0.188 0.71673,0.54049 0.29374,0.34073 0.29374,0.89297 0,0.83422 -0.65798,1.31595 -0.65798,0.46999 -1.75069,0.46999 z"
         style="font-weight:600;font-family:Barlow;-inkscape-font-specification:'Barlow Semi-Bold'"
         id="path2404" />
    </g>
  </g>
</svg>
