<?xml version="1.0" encoding="UTF-8" standalone="no"?>
<!-- Created with Inkscape (http://www.inkscape.org/) -->

<svg
   width="100"
   height="100"
   viewBox="0 0 26.458333 26.458334"
   version="1.1"
   id="svg687174"
   inkscape:version="1.1 (c68e22c387, 2021-05-23)"
   sodipodi:docname="icon_mapTool.svg"
   xmlns:inkscape="http://www.inkscape.org/namespaces/inkscape"
   xmlns:sodipodi="http://sodipodi.sourceforge.net/DTD/sodipodi-0.dtd"
   xmlns="http://www.w3.org/2000/svg"
   xmlns:svg="http://www.w3.org/2000/svg">
  <sodipodi:namedview
     id="namedview687176"
     pagecolor="#ffffff"
     bordercolor="#666666"
     borderopacity="1.0"
     inkscape:pageshadow="2"
     inkscape:pageopacity="0.0"
     inkscape:pagecheckerboard="0"
     inkscape:document-units="mm"
     showgrid="false"
     units="px"
     inkscape:zoom="2.8934905"
     inkscape:cx="125.10841"
     inkscape:cy="64.455024"
     inkscape:window-width="2400"
     inkscape:window-height="1271"
     inkscape:window-x="2391"
     inkscape:window-y="-9"
     inkscape:window-maximized="1"
     inkscape:current-layer="layer1" />
  <defs
     id="defs687171" />
  <g
     inkscape:label="Calque 1"
     inkscape:groupmode="layer"
     id="layer1">
    <path
       style="fill:#75b7b5;fill-opacity:0.511182;stroke-width:0.046231"
       d="m 18.400145,20.461901 -2.461492,-0.632372 -3.44e-4,-7.408545 c -1.56e-4,-4.2543655 0.01879,-7.4085467 0.04069,-7.4085467 0.02192,0 0.797396,0.1859358 1.722098,0.4130656 3.94707,0.9696844 3.742541,0.9143105 3.89032,1.0531676 0.280782,0.2635659 0.264504,-0.1853099 0.264504,7.2283065 0,7.566468 0.02505,6.986999 -0.311459,7.243647 -0.30144,0.229759 -0.416039,0.21223 -3.143944,-0.488723 z M 8.5410298,13.570562 c 0,-4.0712772 0.00625,-7.4023795 0.012521,-7.4023795 0.00625,0 1.3119143,-0.2601225 2.8999442,-0.5778414 1.588031,-0.3177502 2.913811,-0.5779038 2.946177,-0.5779038 0.04726,0 0.05885,1.4378107 0.05885,7.3858837 v 7.385915 l -2.877875,0.57399 C 9.9978114,20.674005 8.6663646,20.94139 8.621854,20.952597 8.545168,20.971387 8.540776,20.597408 8.540776,13.570562 Z M 4.2494784,20.247103 C 2.5217765,19.817353 1.5571321,19.556543 1.4784693,19.49782 1.4121083,19.448049 1.315071,19.350385 1.262483,19.279954 1.1673239,19.152241 1.1673239,19.13972 1.155116,12.275365 L 1.142595,5.3984265 1.2480839,5.1987174 C 1.3726673,4.9626978 1.5954462,4.8275342 1.859231,4.8272212 1.961277,4.827096 3.1734289,5.1133247 4.5528297,5.4629093 l 2.507913,0.6359073 6.25e-5,7.4085464 c 1.253e-4,7.026814 -0.00627,7.408266 -0.08076,7.403695 -0.044763,-0.0025 -1.2735673,-0.301442 -2.7312551,-0.664048 z"
       id="path51594" />
    <path
       id="rect60216"
       style="fill:#009099;fill-opacity:1;stroke:#ffffff;stroke-width:0.964113;stroke-linecap:round;stroke-miterlimit:4;stroke-dasharray:none;stroke-opacity:1;paint-order:normal"
       d="m 21.639281,15.706041 c -0.672782,0 -1.214813,0.542061 -1.214813,1.214812 v 1.821422 h -1.82142 c -0.672751,0 -1.214815,0.540434 -1.214815,1.213184 0,0.672781 0.542064,1.214814 1.214815,1.214814 h 1.82142 v 1.82142 c 0,0.672751 0.542031,1.214814 1.214813,1.214814 0.67275,0 1.213185,-0.542063 1.213185,-1.214814 v -1.82142 h 1.823049 c 0.67275,0 1.213185,-0.542033 1.213185,-1.214814 0,-0.67275 -0.540435,-1.213184 -1.213185,-1.213184 h -1.823049 v -1.821422 c 0,-0.672751 -0.540435,-1.214812 -1.213185,-1.214812 z" />
  </g>
</svg>
