<?xml version="1.0" encoding="UTF-8" standalone="no"?>
<!-- Created with Inkscape (http://www.inkscape.org/) -->

<svg
   width="100"
   height="100"
   viewBox="0 0 26.458333 26.458334"
   version="1.1"
   id="svg687174"
   inkscape:version="1.1 (c68e22c387, 2021-05-23)"
   sodipodi:docname="icon_catalogData.svg"
   xmlns:inkscape="http://www.inkscape.org/namespaces/inkscape"
   xmlns:sodipodi="http://sodipodi.sourceforge.net/DTD/sodipodi-0.dtd"
   xmlns="http://www.w3.org/2000/svg"
   xmlns:svg="http://www.w3.org/2000/svg">
  <sodipodi:namedview
     id="namedview687176"
     pagecolor="#ffffff"
     bordercolor="#666666"
     borderopacity="1.0"
     inkscape:pageshadow="2"
     inkscape:pageopacity="0.0"
     inkscape:pagecheckerboard="0"
     inkscape:document-units="mm"
     showgrid="false"
     units="px"
     inkscape:zoom="2.8934905"
     inkscape:cx="125.10841"
     inkscape:cy="64.455024"
     inkscape:window-width="2400"
     inkscape:window-height="1271"
     inkscape:window-x="2391"
     inkscape:window-y="-9"
     inkscape:window-maximized="1"
     inkscape:current-layer="layer1" />
  <defs
     id="defs687171" />
  <g
     inkscape:label="Calque 1"
     inkscape:groupmode="layer"
     id="layer1">
    <g
       id="g910"
       transform="matrix(0.85086231,0,0,0.85086231,1.9729686,1.9729318)">
      <path
         style="fill:#75b7b5;fill-opacity:0.255591;stroke-width:0.0479811"
         d="m 11.887217,25.479944 c -0.145133,-0.01571 -0.555383,-0.0419 -0.911638,-0.06914 C 6.7993734,25.077175 3.6725377,23.859699 2.8808931,22.258361 l -0.1819536,-0.368202 -0.013618,-1.820478 -0.013618,-1.820426 0.1336631,0.08747 c 1.5934292,1.046679 4.2914955,1.741286 7.8105414,2.011022 1.276566,0.09794 3.953353,0.09794 5.229913,0 3.525217,-0.269736 6.211268,-0.961568 7.808872,-2.009974 l 0.131934,-0.08694 v 1.755009 c 0,1.676916 -0.0045,1.767369 -0.103023,2.032757 -0.620742,1.672988 -3.560533,2.921575 -7.885775,3.349119 -0.717108,0.07123 -3.298518,0.131463 -3.910435,0.09113 z m -0.335834,-6.381573 c -0.118736,-0.01571 -0.550579,-0.0419 -0.959614,-0.07018 C 7.1450799,18.786212 3.9290273,17.885662 2.8308742,16.854697 L 2.6749514,16.708044 v -1.957807 c 0,-1.076742 0.014142,-1.957808 0.031426,-1.957808 0.017808,0 0.1318299,0.0639 0.2540751,0.142462 0.8718738,0.559479 2.6435169,1.156039 4.4141911,1.486321 1.9205999,0.35825 3.2119574,0.457764 5.9036814,0.455669 2.289943,-0.0021 3.088322,-0.04714 4.654134,-0.266593 2.285748,-0.319492 4.487104,-0.982203 5.569633,-1.676863 0.121197,-0.07752 0.234748,-0.141415 0.252242,-0.141415 0.01781,0 0.03143,0.880961 0.03143,1.957703 v 1.957808 l -0.155924,0.146652 c -0.749586,0.703721 -2.659182,1.415875 -4.858055,1.811784 -1.739463,0.312683 -2.937549,0.413245 -5.181926,0.433148 -1.002798,0.01047 -1.920432,0.01047 -2.039184,-0.0015 z M 11.191561,13.53517 C 8.207366,13.346617 5.7034882,12.831554 4.0085547,12.057544 3.5997615,11.871086 3.0110941,11.507389 2.8069175,11.315536 L 2.6749829,11.191405 V 9.2086144 7.2257187 l 0.1835248,0.1157505 c 1.5531522,0.9804751 4.3569443,1.6724643 7.9252293,1.9560269 0.959352,0.076469 3.934686,0.076469 4.894038,0 3.56829,-0.2833531 6.372077,-0.9755518 7.925229,-1.9560269 l 0.183525,-0.1157505 v 1.9828957 1.9827906 l -0.131935,0.124131 c -0.07259,0.06809 -0.289429,0.225216 -0.48191,0.348299 -2.142359,1.37476 -7.238991,2.170663 -11.981081,1.871073 z M 12.055218,8.0833202 C 9.4724775,8.0126128 7.0380814,7.6402208 5.1699725,7.0294666 4.4126655,6.781729 3.4194369,6.3031189 2.9988382,5.9830503 l -0.323892,-0.24669 V 5.219411 c 0,-0.4315766 0.018855,-0.5654492 0.1147554,-0.8097823 C 3.3233849,3.0478053 5.2613526,1.9775581 8.282033,1.376441 9.7054555,1.0925641 11.220646,0.96790966 13.230761,0.96686214 c 1.677801,-4.7138e-4 2.348144,0.0366631 3.725214,0.21631206 3.135734,0.4059125 5.564924,1.4272931 6.44876,2.7119146 0.287282,0.4174351 0.381768,0.7453077 0.381768,1.324008 V 5.736046 l -0.323892,0.2466901 c -0.712568,0.5422991 -2.123923,1.1029297 -3.658534,1.4533238 -2.301865,0.5254865 -4.740749,0.7291237 -7.748896,0.6469984 z"
         id="path41375-3" />
      <path
         style="fill:#009099;fill-opacity:0.266773;stroke-width:0.0479811"
         d="m 11.551383,19.098371 c -0.118736,-0.01571 -0.550579,-0.0419 -0.959614,-0.07018 C 7.1450799,18.786212 3.9290273,17.885662 2.8308742,16.854697 L 2.6749514,16.708044 v -1.957807 c 0,-1.076742 0.014142,-1.957808 0.031426,-1.957808 0.017808,0 0.1318299,0.0639 0.2540751,0.142462 0.8718738,0.559479 2.6435169,1.156039 4.4141911,1.486321 1.9205999,0.35825 3.2119574,0.457764 5.9036814,0.455669 2.289943,-0.0021 3.088322,-0.04714 4.654134,-0.266593 2.285748,-0.319492 4.487104,-0.982203 5.569633,-1.676863 0.121197,-0.07752 0.234748,-0.141415 0.252242,-0.141415 0.01781,0 0.03143,0.880961 0.03143,1.957703 v 1.957808 l -0.155924,0.146652 c -0.749586,0.703721 -2.659182,1.415875 -4.858055,1.811784 -1.739463,0.312683 -2.937549,0.413245 -5.181926,0.433148 -1.002798,0.01047 -1.920432,0.01047 -2.039184,-0.0015 z M 11.191561,13.53517 C 8.207366,13.346617 5.7034882,12.831554 4.0085547,12.057544 3.5997615,11.871086 3.0110941,11.507389 2.8069175,11.315536 L 2.6749829,11.191405 V 9.2086144 7.2257187 l 0.1835248,0.1157505 c 1.5531522,0.9804751 4.3569443,1.6724643 7.9252293,1.9560269 0.959352,0.076469 3.934686,0.076469 4.894038,0 3.56829,-0.2833531 6.372077,-0.9755518 7.925229,-1.9560269 l 0.183525,-0.1157505 v 1.9828957 1.9827906 l -0.131935,0.124131 c -0.07259,0.06809 -0.289429,0.225216 -0.48191,0.348299 -2.142359,1.37476 -7.238991,2.170663 -11.981081,1.871073 z M 12.055218,8.0833202 C 9.4724775,8.0126128 7.0380814,7.6402208 5.1699725,7.0294666 4.4126655,6.781729 3.4194369,6.3031189 2.9988382,5.9830503 l -0.323892,-0.24669 V 5.219411 c 0,-0.4315766 0.018855,-0.5654492 0.1147554,-0.8097823 C 3.3233849,3.0478053 5.2613526,1.9775581 8.282033,1.376441 9.7054555,1.0925641 11.220646,0.96790966 13.230761,0.96686214 c 1.677801,-4.7138e-4 2.348144,0.0366631 3.725214,0.21631206 3.135734,0.4059125 5.564924,1.4272931 6.44876,2.7119146 0.287282,0.4174351 0.381768,0.7453077 0.381768,1.324008 V 5.736046 l -0.323892,0.2466901 c -0.712568,0.5422991 -2.123923,1.1029297 -3.658534,1.4533238 -2.301865,0.5254865 -4.740749,0.7291237 -7.748896,0.6469984 z"
         id="path41375-3-5"
         sodipodi:nodetypes="ccscsscsccssscscccccsscccsscsccccccccsscsccccsscsscc" />
      <path
         style="fill:#009099;fill-opacity:0.504792;stroke-width:0.0479811"
         d="M 11.191525,13.534908 C 8.1433104,13.188181 5.2994665,12.924416 2.8068808,11.315274 L 2.6749462,11.191143 V 9.2083525 7.2254568 L 2.858471,7.3412074 c 1.5531522,0.9804751 4.3569444,1.6724642 7.92523,1.9560268 0.959351,0.076469 3.934685,0.076469 4.894037,0 3.56829,-0.2833531 6.372077,-0.9755517 7.925229,-1.9560268 l 0.183525,-0.1157506 v 1.9828957 1.9827905 l -0.131934,0.124131 c -0.07259,0.06809 -0.289429,0.225216 -0.48191,0.348299 -2.142359,1.37476 -7.238991,2.170663 -11.981081,1.871074 z M 12.055181,8.0830583 C 9.4724408,8.0123509 7.0380447,7.639959 5.1699358,7.0292047 4.4126288,6.7814671 3.4194002,6.302857 2.9988015,5.9827884 l -0.323892,-0.24669 V 5.2191492 c 0,-0.4315767 0.018855,-0.5654493 0.1147554,-0.8097824 C 3.3233482,3.0475435 5.2613159,1.9772962 8.2819963,1.3761791 9.7054189,1.0923022 11.220609,0.96764778 13.230724,0.96660026 c 1.677802,-4.7138e-4 2.348144,0.036663 3.725214,0.21631204 3.135734,0.4059126 5.564924,1.4272932 6.448761,2.7119146 0.287281,0.4174352 0.381767,0.7453077 0.381767,1.324008 V 5.7357841 L 23.462574,5.9824742 C 22.750006,6.5247733 21.338651,7.0854039 19.80404,7.4357981 17.502176,7.9612845 15.063291,8.1649217 12.055144,8.0827964 Z"
         id="path41375-3-5-2"
         sodipodi:nodetypes="cccccsscsccccccccsscsccccsscsscc" />
      <path
         style="fill:#009099;fill-opacity:1;stroke-width:0.0479811"
         d="M 12.055254,8.083582 C 9.4725141,8.0128747 7.038118,7.6404827 5.1700092,7.0297284 4.4127021,6.7819909 3.4194735,6.3033807 2.9988748,5.9833122 L 2.6749829,5.7366221 V 5.2196729 c 0,-0.4315766 0.018855,-0.5654492 0.1147553,-0.8097823 C 3.3234215,3.0480672 5.2613892,1.97782 8.2820696,1.3767028 9.7054922,1.092826 11.220682,0.96817154 13.230798,0.96712402 c 1.677801,-4.7138e-4 2.348143,0.0366631 3.725213,0.21631208 3.135735,0.4059125 5.564925,1.4272931 6.448761,2.7119145 0.287281,0.4174352 0.381767,0.7453078 0.381767,1.3240081 v 0.5169492 l -0.323892,0.24669 C 22.75008,6.525297 21.338725,7.0859277 19.804113,7.4363218 17.502249,7.9618083 15.063364,8.1654454 12.055218,8.0833202 Z"
         id="path41375-3-5-2-9"
         sodipodi:nodetypes="csscsccccsscsscc" />
    </g>
  </g>
</svg>
